<?xml version="1.0" encoding="utf-8" standalone="yes"?>
<!DOCTYPE svg PUBLIC "-//W3C//DTD SVG 1.1//EN" "http://www.w3.org/Graphics/SVG/1.1/DTD/svg11.dtd">
<svg width="886" height="1283" viewBox="0 0 886 1283" style="fill:none;stroke:none;fill-rule:evenodd;clip-rule:evenodd;stroke-linecap:round;stroke-linejoin:round;stroke-miterlimit:1.5;" version="1.1" xmlns="http://www.w3.org/2000/svg" xmlns:xlink="http://www.w3.org/1999/xlink"><style id="fontImports">@import url("https://fonts.googleapis.com/css2?family=Roboto:wght@400;700&amp;display=block");</style><g id="items" style="isolation: isolate"><g id="blend" style="mix-blend-mode: normal"><g id="g-root-ro_92r29818zrtoh-fill" data-item-order="-46800" transform="translate(282.6000061035156, 941)"></g><g id="g-root-ro_18jfxh71aditqe-fill" data-item-order="-33881" transform="translate(300.2538757324219, 773)"></g><g id="g-root-ro_zp1s8r1ady8sn-fill" data-item-order="-29447" transform="translate(309.9055480957031, 617)"></g><g id="g-root-ro_dg2r7f1adn1u6-fill" data-item-order="-22464" transform="translate(315.6000061035156, 173)"></g><g id="g-root-ro_v4uyij1adu22o-fill" data-item-order="-22254" transform="translate(329.5722351074219, 479)"></g><g id="g-root-ro_8ydttn1add5hd-fill" data-item-order="-20620" transform="translate(346.6833190917969, 17)"></g><g id="g-root-ro_90vtbv1adk8ay-fill" data-item-order="-13824" transform="translate(336.6000061035156, 343)"></g><g id="g-root-ro_hxrrqz1adodu1-fill" data-item-order="-11232" transform="translate(548.5999755859375, 343)"></g><g id="g-root-ro_1q87vaz1advfnx-fill" data-item-order="-11232" transform="translate(160.60000610351562, 343)"></g><g id="g-root-2_1cz9fln1adisy5-fill" data-item-order="0" transform="translate(318.5027160644531, 814.90283203125)"></g><g id="g-root-like_144vad71ady80e-fill" data-item-order="0" transform="translate(348.6000061035156, 660.5)"></g><g id="g-root-cu_diktvf1adn0um-fill" data-item-order="2" transform="translate(432.6000061035156, 415)"></g><g id="g-root-cu_hyebzv1adn022-fill" data-item-order="2" transform="translate(238.60000610351562, 269)"></g><g id="g-root-cu_diktvf1adn0uh-fill" data-item-order="2" transform="translate(238.60000610351562, 415)"></g><g id="g-root-cu_diktvf1adn0uf-fill" data-item-order="2" transform="translate(432.6000061035156, 269)"></g><g id="g-root-tx_enhancee_18itd8b1adk7i8-fill" data-item-order="2000000000" transform="translate(384.6000061035156, 355)"><g id="tx_enhancee_18itd8b1adk7i8-fill" stroke="none" fill="#1ac3fb"><g><text style="font: 20px Roboto, sans-serif; white-space: pre;" font-size="20px" font-family="Roboto, sans-serif"><tspan x="37.79" y="34" dominant-baseline="ideographic">Enhance </tspan><tspan x="16.15" y="58" dominant-baseline="ideographic">Effectiveness</tspan></text></g></g></g><g id="g-root-tx_enhancee_ddkuuz1advgn7-fill" data-item-order="2000000000" transform="translate(208.60000610351562, 355)"><g id="tx_enhancee_ddkuuz1advgn7-fill" stroke="none" fill="#1ac3fb"><g><text style="font: 20px Roboto, sans-serif; white-space: pre;" font-size="20px" font-family="Roboto, sans-serif"><tspan x="19.55" y="34" dominant-baseline="ideographic">Enhance </tspan><tspan x="15.09" y="58" dominant-baseline="ideographic">Efficiency</tspan></text></g></g></g><g id="g-root-stop_2qtkr1advf2c-fill" data-item-order="2000000000" transform="translate(172.60000610351562, 364)"></g><g id="g-root-1_hwitkr1adk7i9-fill" data-item-order="2000000000" transform="translate(348.6000061035156, 364)"></g><g id="g-root-incr_qssawr1adog74-fill" data-item-order="2000000000" transform="translate(560.5999755859375, 364)"></g><g id="g-root-tx_enhances_4kfu4b1adogen-fill" data-item-order="2000000000" transform="translate(596.5999755859375, 355)"><g id="tx_enhances_4kfu4b1adogen-fill" stroke="none" fill="#1ac3fb"><g><text style="font: 20px Roboto, sans-serif; white-space: pre;" font-size="20px" font-family="Roboto, sans-serif"><tspan x="19.79" y="34" dominant-baseline="ideographic">Enhance </tspan><tspan x="12.64" y="58" dominant-baseline="ideographic">Scalability</tspan></text></g></g></g><g id="g-root-tx_implemen_qp1d8b1add69z-fill" data-item-order="2000000000" transform="translate(396.6000061035156, 29)"><g id="tx_implemen_qp1d8b1add69z-fill" stroke="none" fill="#1ac3fb"><g><text style="font: 20px Roboto, sans-serif; white-space: pre;" font-size="20px" font-family="Roboto, sans-serif"><tspan x="13.85" y="34" dominant-baseline="ideographic">Implement </tspan><tspan x="18.02" y="58" dominant-baseline="ideographic">Customer </tspan><tspan x="23.99" y="82" dominant-baseline="ideographic">Success </tspan><tspan x="14.2" y="106" dominant-baseline="ideographic">Automator</tspan></text></g></g></g><g id="g-root-tx_achieveh_4mf5n1aditxg-fill" data-item-order="2000000000" transform="translate(360.2538757324219, 791)"><g id="tx_achieveh_4mf5n1aditxg-fill" stroke="none" fill="#1ac3fb"><g><text style="font: bold 25px Roboto, sans-serif; white-space: pre;" font-weight="bold" font-size="25px" font-family="Roboto, sans-serif"><tspan x="19.22" y="58" dominant-baseline="ideographic">Achieve Higher </tspan><tspan x="15.32" y="88" dominant-baseline="ideographic">Retention Rates</tspan></text></g></g></g><g id="g-root-tx_drivecus_1heggmz1adn090-fill" data-item-order="2000000000" transform="translate(306.60003662109375, 965)"><g id="tx_drivecus_1heggmz1adn090-fill" stroke="none" fill="#1ac3fb"><g><text style="font: bold 30px Roboto, sans-serif; white-space: pre;" font-weight="bold" font-size="30px" font-family="Roboto, sans-serif"><tspan x="95.37" y="46" dominant-baseline="ideographic">Drive </tspan><tspan x="13.6" y="82" dominant-baseline="ideographic">Customer-Centric </tspan><tspan x="85.51" y="118" dominant-baseline="ideographic">Growth</tspan></text></g></g></g><g id="g-root-hand_zkogmz1adu1af-fill" data-item-order="2000000000" transform="translate(342.6000061035156, 518)"></g><g id="g-root-tx_buildstr_1hbc01n1adu232-fill" data-item-order="2000000000" transform="translate(378.6000061035156, 509)"><g id="tx_buildstr_1hbc01n1adu232-fill" stroke="none" fill="#1ac3fb"><g><text style="font: bold 20px Roboto, sans-serif; white-space: pre;" font-weight="bold" font-size="20px" font-family="Roboto, sans-serif"><tspan x="15.08" y="34" dominant-baseline="ideographic">Build Stronger </tspan><tspan x="18.26" y="58" dominant-baseline="ideographic">Relationships</tspan></text></g></g></g><g id="g-root-tx_increase_1ur5u0r1ady80d-fill" data-item-order="2000000000" transform="translate(382.2000427246094, 641)"><g id="tx_increase_1ur5u0r1ady80d-fill" stroke="none" fill="#1ac3fb"><g><text style="font: bold 20px Roboto, sans-serif; white-space: pre;" font-weight="bold" font-size="20px" font-family="Roboto, sans-serif"><tspan x="43.4" y="34" dominant-baseline="ideographic">Increase </tspan><tspan x="38.12" y="58" dominant-baseline="ideographic">Customer </tspan><tspan x="27.87" y="82" dominant-baseline="ideographic">Satisfaction</tspan></text></g></g></g><g id="g-root-user_qrj9kr1adn099-fill" data-item-order="2000000000" transform="translate(342.0000305175781, 206)"></g><g id="g-root-1_ddkuuz1add7uw-fill" data-item-order="2000000000" transform="translate(360.6000061035156, 62)"></g><g id="g-root-tx_leverage_1hdtt8b1adn098-fill" data-item-order="2000000000" transform="translate(378.0000305175781, 185)"><g id="tx_leverage_1hdtt8b1adn098-fill" stroke="none" fill="#1ac3fb"><g><text style="font: 25px Roboto, sans-serif; white-space: pre;" font-size="25px" font-family="Roboto, sans-serif"><tspan x="19.97" y="46" dominant-baseline="ideographic">Leverage AI </tspan><tspan x="12.17" y="76" dominant-baseline="ideographic">&amp; Automation</tspan></text></g></g></g><g id="g-root-cu_1ut1cfv1admzuz-fill" data-item-order="2000000002" transform="translate(432.6000061035156, 737)"></g><g id="g-root-cu_1qd7ubf1adn0na-fill" data-item-order="2000000002" transform="translate(432.6000061035156, 901)"></g><g id="g-root-cu_4nkapn1admz9c-fill" data-item-order="2000000002" transform="translate(432.6000061035156, 587)"></g><g id="g-root-cu_diktvf1adn0uk-fill" data-item-order="2000000002" transform="translate(432.6000061035156, 415)"></g><g id="g-root-cu_hyebzv1adn025-fill" data-item-order="2000000002" transform="translate(432.6000061035156, 269)"></g><g id="g-root-cu_me7u4b1admz9r-fill" data-item-order="2000000002" transform="translate(432.6000061035156, 137)"></g><g id="g-root-ro_92r29818zrtoh-stroke" data-item-order="-46800" transform="translate(282.6000061035156, 941)"><g id="ro_92r29818zrtoh-stroke" fill="none" stroke-linecap="round" stroke-linejoin="round" stroke-miterlimit="4" stroke="#f4f4f4" stroke-width="2"><g><path d="M 58.000031 10L 262.000031 10C 262.000031 10 310.000031 10 310.000031 58L 310.000031 118C 310.000031 118 310.000031 166 262.000031 166L 58.000031 166C 58.000031 166 10.000031 166 10.000031 118L 10.000031 58C 10.000031 58 10.000031 10 58.000031 10"></path></g></g></g><g id="g-root-ro_18jfxh71aditqe-stroke" data-item-order="-33881" transform="translate(300.2538757324219, 773)"><g id="ro_18jfxh71aditqe-stroke" fill="none" stroke-linecap="round" stroke-linejoin="round" stroke-miterlimit="4" stroke="#1ac3fb" stroke-width="2"><g><path d="M 22 10L 262.69 10C 262.69 10 274.69 10 274.69 22L 274.69 126C 274.69 126 274.69 138 262.69 138L 22 138C 22 138 10 138 10 126L 10 22C 10 22 10 10 22 10"></path></g></g></g><g id="g-root-ro_zp1s8r1ady8sn-stroke" data-item-order="-29447" transform="translate(309.9055480957031, 617)"><g id="ro_zp1s8r1ady8sn-stroke" fill="none" stroke-linecap="round" stroke-linejoin="round" stroke-miterlimit="4" stroke="#1ac3fb" stroke-width="2"><g><path d="M 22 10L 243.39 10C 243.39 10 255.39 10 255.39 22L 255.39 118C 255.39 118 255.39 130 243.39 130L 22 130C 22 130 10 130 10 118L 10 22C 10 22 10 10 22 10"></path></g></g></g><g id="g-root-ro_dg2r7f1adn1u6-stroke" data-item-order="-22464" transform="translate(315.6000061035156, 173)"><g id="ro_dg2r7f1adn1u6-stroke" fill="none" stroke-linecap="round" stroke-linejoin="round" stroke-miterlimit="4" stroke="#b7b7b7" stroke-width="2"><g><path d="M 22 10L 232 10C 232 10 244 10 244 22L 244 94C 244 94 244 106 232 106L 22 106C 22 106 10 106 10 94L 10 22C 10 22 10 10 22 10"></path></g></g></g><g id="g-root-ro_v4uyij1adu22o-stroke" data-item-order="-22254" transform="translate(329.5722351074219, 479)"><g id="ro_v4uyij1adu22o-stroke" fill="none" stroke-linecap="round" stroke-linejoin="round" stroke-miterlimit="4" stroke="#1ac3fb" stroke-width="2"><g><path d="M 16 10L 210.06 10C 210.06 10 216.06 10 216.06 16L 216.06 112C 216.06 112 216.06 118 210.06 118L 16 118C 16 118 10 118 10 112L 10 16C 10 16 10 10 16 10"></path></g></g></g><g id="g-root-ro_8ydttn1add5hd-stroke" data-item-order="-20620" transform="translate(346.6833190917969, 17)"><g id="ro_8ydttn1add5hd-stroke" fill="none" stroke-linecap="round" stroke-linejoin="round" stroke-miterlimit="4" stroke="#f4f4f4" stroke-width="2"><g><path d="M 22 10L 169.83 10C 169.83 10 181.83 10 181.83 22L 181.83 118C 181.83 118 181.83 130 169.83 130L 22 130C 22 130 10 130 10 118L 10 22C 10 22 10 10 22 10"></path></g></g></g><g id="g-root-ro_90vtbv1adk8ay-stroke" data-item-order="-13824" transform="translate(336.6000061035156, 343)"><g id="ro_90vtbv1adk8ay-stroke" fill="none" stroke-linecap="round" stroke-linejoin="round" stroke-miterlimit="4" stroke="#1ac3fb" stroke-width="2"><g><path d="M 22 10L 190 10C 190 10 202 10 202 22L 202 70C 202 70 202 82 190 82L 22 82C 22 82 10 82 10 70L 10 22C 10 22 10 10 22 10"></path></g></g></g><g id="g-root-ro_hxrrqz1adodu1-stroke" data-item-order="-11232" transform="translate(548.5999755859375, 343)"><g id="ro_hxrrqz1adodu1-stroke" fill="none" stroke-linecap="round" stroke-linejoin="round" stroke-miterlimit="4" stroke="#1ac3fb" stroke-width="2"><g><path d="M 22 10L 154 10C 154 10 166 10 166 22L 166 70C 166 70 166 82 154 82L 22 82C 22 82 10 82 10 70L 10 22C 10 22 10 10 22 10"></path></g></g></g><g id="g-root-ro_1q87vaz1advfnx-stroke" data-item-order="-11232" transform="translate(160.60000610351562, 343)"><g id="ro_1q87vaz1advfnx-stroke" fill="none" stroke-linecap="round" stroke-linejoin="round" stroke-miterlimit="4" stroke="#1ac3fb" stroke-width="2"><g><path d="M 22 10L 154 10C 154 10 166 10 166 22L 166 70C 166 70 166 82 154 82L 22 82C 22 82 10 82 10 70L 10 22C 10 22 10 10 22 10"></path></g></g></g><g id="g-root-2_1cz9fln1adisy5-stroke" data-item-order="0" transform="translate(318.5027160644531, 814.90283203125)"><g id="2_1cz9fln1adisy5-stroke" fill="none" stroke-linecap="round" stroke-linejoin="round" stroke-miterlimit="4" stroke="#ebf2ff" stroke-width="2"><g><path d="M 34.889805 13.016214L 39.414127 13.016214L 39.414127 17.540537M 11.508107 23.572968L 18.018606 19.019991C 18.617899 18.600771 19.431606 18.671968 19.948984 19.188898L 20.413483 19.653397C 20.934557 20.17458 21.755991 20.242821 22.355925 19.814762L 25.673759 17.45005C 26.222231 17.058207 26.964128 17.077908 27.49103 17.49831L 29.451569 19.072775C 29.988758 19.502596 30.748743 19.514383 31.299002 19.101429L 39.408096 13.016214M 16.786484 37.899986C 16.786484 37.483536 16.448883 37.145935 16.032429 37.145935L 13.016214 37.145935C 12.599763 37.145935 12.262161 37.483536 12.262161 37.899986L 12.262161 43.178364L 16.786484 43.178364ZM 25.835129 30.359449C 25.835129 29.942999 25.497526 29.605396 25.081074 29.605396L 22.064859 29.605396C 21.648407 29.605396 21.310806 29.942999 21.310806 30.359449L 21.310806 43.178364L 25.835129 43.178364ZM 34.883774 34.883774C 34.883774 34.467319 34.546169 34.129719 34.129719 34.129719L 31.113504 34.129719C 30.697052 34.129719 30.359449 34.467319 30.359449 34.883774L 30.359449 43.178364L 34.883774 43.178364ZM 43.932419 22.818913C 43.932419 22.402462 43.594814 22.064859 43.178364 22.064859L 40.162148 22.064859C 39.745697 22.064859 39.408096 22.402462 39.408096 22.818913L 39.408096 43.178364L 43.932419 43.178364ZM 10.760086 43.178364L 45.446556 43.178364"></path></g></g></g><g id="g-root-like_144vad71ady80e-stroke" data-item-order="0" transform="translate(348.6000061035156, 660.5)"><g id="like_144vad71ady80e-stroke" fill="none" stroke-linecap="round" stroke-linejoin="round" stroke-miterlimit="4" stroke="#f4f4f4" stroke-width="2"><g><path d="M 11.78125 35.759251C 12.014 35.878792 12.247541 35.99754 12.481874 36.115501C 16.800814 38.298126 16.589437 37.873001 20.287313 37.873001C 21.831062 37.873001 22.615999 36.868374 23.072001 35.39706L 23.072001 35.387562L 24.194187 31.642187L 24.194187 31.635063C 24.302359 31.279137 24.235146 30.892992 24.013073 30.594553C 23.790998 30.29611 23.440435 30.12081 23.068436 30.122187L 20.187563 30.122187C 19.823345 30.121185 19.479733 29.9531 19.255375 29.666189C 19.032288 29.378775 18.956293 29.003637 19.049938 28.652061L 19.568874 26.693874C 19.650703 26.385382 19.579599 26.05636 19.377687 25.809187C 19.178314 25.564844 18.876301 25.427586 18.561111 25.438068C 18.245924 25.448551 17.953699 25.605576 17.771 25.862625L 14.893687 29.919125C 14.672291 30.230501 14.313875 30.415461 13.931812 30.415499L 11.78125 30.415499M 10.59375 29.59375L 11.78125 29.59375L 11.78125 37.90625L 10.59375 37.90625M 15.0255 10.59375C 14.532972 10.593989 14.091715 10.89824 13.916375 11.3585L 12.040125 16.28425C 11.837327 16.812433 11.829747 17.395662 12.01875 17.928938C 12.555386 19.422714 14.088079 20.314606 15.651937 20.043127C 17.215794 19.771648 18.358215 18.415369 18.359999 16.828125C 18.360001 18.63168 19.822071 20.09375 21.625626 20.09375C 23.42918 20.09375 24.891251 18.63168 24.891251 16.828125C 24.891251 18.63168 26.353321 20.09375 28.156876 20.09375C 29.96043 20.09375 31.422501 18.63168 31.422501 16.828125C 31.424284 18.415369 32.566704 19.771648 34.130562 20.043127C 35.69442 20.314606 37.227112 19.422714 37.763748 17.928938C 37.95491 17.396334 37.949009 16.812881 37.747128 16.28425L 35.870872 11.3585C 35.695847 10.89905 35.255783 10.594973 34.764126 10.59375ZM 26.03125 34.34375L 35.53125 34.34375L 35.53125 19.984501M 27.21875 34.34375L 27.21875 24.84375C 27.21875 24.187912 27.750412 23.65625 28.40625 23.65625L 31.96875 23.65625C 32.624588 23.65625 33.15625 24.187912 33.15625 24.84375L 33.15625 34.34375M 14.15625 24.25L 14.15625 19.955999"></path></g></g></g><g id="g-root-cu_diktvf1adn0um-stroke" data-item-order="2" transform="translate(432.6000061035156, 415)"><g id="cu_diktvf1adn0um-stroke" fill="none" stroke-linecap="round" stroke-linejoin="round" stroke-miterlimit="4" stroke="#f4f4f4" stroke-width="2"><g><path d="M 204 10L 204 26L 204 42L 107 42L 10 42L 10 58L 10 72"></path><path d="M 3.5 66L 10 72.5L 16.5 66" stroke-dasharray="none"></path></g></g></g><g id="g-root-cu_hyebzv1adn022-stroke" data-item-order="2" transform="translate(238.60000610351562, 269)"><g id="cu_hyebzv1adn022-stroke" fill="none" stroke-linecap="round" stroke-linejoin="round" stroke-miterlimit="4" stroke="#f4f4f4" stroke-width="2"><g><path d="M 204 10L 204 28.5L 204 47L 107 47L 10 47L 10 65.5L 10 82"></path><path d="M 3.5 76L 10 82.5L 16.5 76" stroke-dasharray="none"></path></g></g></g><g id="g-root-cu_diktvf1adn0uh-stroke" data-item-order="2" transform="translate(238.60000610351562, 415)"><g id="cu_diktvf1adn0uh-stroke" fill="none" stroke-linecap="round" stroke-linejoin="round" stroke-miterlimit="4" stroke="#f4f4f4" stroke-width="2"><g><path d="M 10 10L 10 26L 10 42L 107 42L 204 42L 204 58L 204 72"></path><path d="M 197.5 66L 204 72.5L 210.5 66" stroke-dasharray="none"></path></g></g></g><g id="g-root-cu_diktvf1adn0uf-stroke" data-item-order="2" transform="translate(432.6000061035156, 269)"><g id="cu_diktvf1adn0uf-stroke" fill="none" stroke-linecap="round" stroke-linejoin="round" stroke-miterlimit="4" stroke="#f4f4f4" stroke-width="2"><g><path d="M 10 10L 10 28.5L 10 47L 107 47L 204 47L 204 65.5L 204 82"></path><path d="M 197.5 76L 204 82.5L 210.5 76" stroke-dasharray="none"></path></g></g></g><g id="g-root-tx_enhancee_18itd8b1adk7i8-stroke" data-item-order="2000000000" transform="translate(384.6000061035156, 355)"></g><g id="g-root-tx_enhancee_ddkuuz1advgn7-stroke" data-item-order="2000000000" transform="translate(208.60000610351562, 355)"></g><g id="g-root-stop_2qtkr1advf2c-stroke" data-item-order="2000000000" transform="translate(172.60000610351562, 364)"><g id="stop_2qtkr1advf2c-stroke" fill="none" stroke-linecap="round" stroke-linejoin="round" stroke-miterlimit="4" stroke="#1ac3fb" stroke-width="2"><g><path d="M 13.125 27.501251C 13.125 34.059631 18.441618 39.376251 25 39.376251C 31.558382 39.376251 36.875 34.059631 36.875 27.501251C 36.875 20.942869 31.558382 15.62625 25 15.62625C 18.441618 15.62625 13.125 20.942869 13.125 27.501251ZM 21.25 10.62625L 28.75 10.62625M 33.396248 19.105L 35.625 16.876249M 23.125 15.7725L 23.125 10.62625L 26.875 10.62625L 26.875 15.77375M 35 16.251249L 36.25 17.501249M 25 27.501251L 19.375 21.876251"></path></g></g></g><g id="g-root-1_hwitkr1adk7i9-stroke" data-item-order="2000000000" transform="translate(348.6000061035156, 364)"><g id="1_hwitkr1adk7i9-stroke" fill="none" stroke-linecap="round" stroke-linejoin="round" stroke-miterlimit="4" stroke="#1ac3fb" stroke-width="2"><g><path d="M 34.375 27.5C 34.375 34.058384 29.058382 39.375 22.5 39.375C 15.941619 39.375 10.625 34.058384 10.625 27.5C 10.625 20.941618 15.941619 15.625 22.5 15.625M 34.375 23.122499L 26.875 23.122499L 26.875 15.6225M 26.875 23.122499L 39.0625 10.935M 21.610001 24.5C 20.108932 24.947632 19.171169 26.437408 19.41666 27.98444C 19.662149 29.531473 21.015041 30.657757 22.580946 30.618708C 24.146847 30.57966 25.441921 29.387346 25.610001 27.83M 22.741249 20C 19.701193 19.892305 16.897188 21.631559 15.64293 24.40291C 14.388671 27.174261 14.932616 30.428732 17.019924 32.641579C 19.107231 34.854427 22.324425 35.587311 25.164227 34.496868C 28.004032 33.406425 29.903906 30.708664 29.973751 27.667501"></path></g></g></g><g id="g-root-incr_qssawr1adog74-stroke" data-item-order="2000000000" transform="translate(560.5999755859375, 364)"><g id="incr_qssawr1adog74-stroke" fill="none" stroke-linecap="round" stroke-linejoin="round" stroke-miterlimit="4" stroke="#1ac3fb" stroke-width="2"><g><path d="M 10.63 39.0625L 39.380001 39.0625M 15.625 39.0625L 15.625 35.9375C 15.625 35.592323 15.345179 35.3125 15 35.3125L 12.5 35.3125C 12.154822 35.3125 11.875 35.592323 11.875 35.9375L 11.875 39.0625M 23.125 39.0625L 23.125 30.9375C 23.125 30.592323 22.845177 30.3125 22.5 30.3125L 20 30.3125C 19.654821 30.3125 19.375 30.592323 19.375 30.9375L 19.375 39.0625M 30.625 39.0625L 30.625 25.9375C 30.625 25.592323 30.345177 25.3125 30 25.3125L 27.5 25.3125C 27.154823 25.3125 26.875 25.592323 26.875 25.9375L 26.875 39.0625M 38.125 39.0625L 38.125 20.9375C 38.125 20.592323 37.845177 20.3125 37.5 20.3125L 35 20.3125C 34.654823 20.3125 34.375 20.592323 34.375 20.9375L 34.375 39.0625M 13.755 26.5625L 36.255001 11.5625M 35.630001 16.5625L 36.255001 11.5625L 31.254999 10.9375"></path></g></g></g><g id="g-root-tx_enhances_4kfu4b1adogen-stroke" data-item-order="2000000000" transform="translate(596.5999755859375, 355)"></g><g id="g-root-tx_implemen_qp1d8b1add69z-stroke" data-item-order="2000000000" transform="translate(396.6000061035156, 29)"></g><g id="g-root-tx_achieveh_4mf5n1aditxg-stroke" data-item-order="2000000000" transform="translate(360.2538757324219, 791)"></g><g id="g-root-tx_drivecus_1heggmz1adn090-stroke" data-item-order="2000000000" transform="translate(306.60003662109375, 965)"></g><g id="g-root-hand_zkogmz1adu1af-stroke" data-item-order="2000000000" transform="translate(342.6000061035156, 518)"><g id="hand_zkogmz1adu1af-stroke" fill="none" stroke-linecap="round" stroke-linejoin="round" stroke-miterlimit="4" stroke="#ffffff" stroke-width="2"><g><path d="M 29.114285 24.228571L 23.928572 27.678572L 20.714285 24.464285L 26.071428 18.035713L 31.42857 18.035713L 36.785713 15.892857M 30.635714 29.928572L 36.785713 26.607141M 38.92857 28.75L 36.785713 28.75L 36.785713 14.821428L 38.92857 14.821428M 27.078571 25.578571L 31.42857 30.892857L 20.714285 35.17857L 13.214286 28.75M 13.214286 18.035713L 20.714285 18.035713L 23.457144 21.164286M 11.071428 16.964285L 13.214286 16.964285L 13.214286 29.821428L 11.071428 29.821428"></path></g></g></g><g id="g-root-tx_buildstr_1hbc01n1adu232-stroke" data-item-order="2000000000" transform="translate(378.6000061035156, 509)"></g><g id="g-root-tx_increase_1ur5u0r1ady80d-stroke" data-item-order="2000000000" transform="translate(382.2000427246094, 641)"></g><g id="g-root-user_qrj9kr1adn099-stroke" data-item-order="2000000000" transform="translate(342.0000305175781, 206)"><g id="user_qrj9kr1adn099-stroke" fill="none" stroke-linecap="round" stroke-linejoin="round" stroke-miterlimit="4" stroke="#1ac3fb" stroke-width="2"><g><path d="M 23.75 25.625C 19.607864 25.625 16.25 22.267136 16.25 18.125C 16.25 13.982864 19.607864 10.625 23.75 10.625ZM 11.875 39.375C 11.875 32.81662 17.191618 27.5 23.75 27.5L 23.75 39.375ZM 26.25 25.625C 26.669079 25.62249 27.08721 25.584858 27.5 25.512501L 27.5 23.6C 28.114824 23.45896 28.701128 23.214209 29.233749 22.876249L 30.591249 24.233749C 31.275032 23.747475 31.872475 23.150032 32.358749 22.466249L 31 21.108749C 31.338396 20.576212 31.583572 19.989904 31.724998 19.375L 33.637501 19.375C 33.709858 18.962208 33.74749 18.544079 33.75 18.125C 33.74749 17.705921 33.709858 17.287792 33.637501 16.875L 31.724998 16.875C 31.583572 16.260096 31.338396 15.673787 31 15.14125L 32.357498 13.78375C 31.871225 13.099968 31.273783 12.502524 30.59 12.01625L 29.233749 13.375C 28.701212 13.036602 28.114902 12.791427 27.499998 12.65L 27.5 10.7375C 27.08721 10.665142 26.669079 10.62751 26.25 10.625M 26.25 15.625C 27.630713 15.625 28.75 16.744287 28.75 18.125C 28.75 19.505713 27.630713 20.625 26.25 20.625M 38.125 39.375C 38.120491 38.746685 38.066154 38.11972 37.962498 37.499996L 35.436253 37.5C 35.269238 36.689056 34.994289 35.904152 34.618752 35.166252L 36.4575 33.328751C 35.597328 31.877451 34.438881 30.625269 33.05875 29.655001L 31.256248 31.45875C 30.482542 30.966578 29.640015 30.592075 28.75625 30.3475L 28.75625 27.768749C 27.932667 27.590916 27.092564 27.500828 26.25 27.5M 26.25 34.375C 29.011423 34.375 31.25 36.613575 31.25 39.375"></path></g></g></g><g id="g-root-1_ddkuuz1add7uw-stroke" data-item-order="2000000000" transform="translate(360.6000061035156, 62)"><g id="1_ddkuuz1add7uw-stroke" fill="none" stroke-linecap="round" stroke-linejoin="round" stroke-miterlimit="4" stroke="#b7b7b7" stroke-width="2"><g><path d="M 18.55875 27.58625L 20.0525 30.366249M 27.13875 16.932501L 33.028751 27.893749M 32.393753 26.7125L 19.692501 29.695L 18.9 28.221249L 27.905001 18.3575L 32.393753 26.7125ZM 22.436251 29.05125L 23.137501 30.32C 23.369761 30.771175 23.777817 31.106585 24.265419 31.247116C 24.753019 31.387646 25.276993 31.320858 25.713749 31.062498C 26.632231 30.497723 26.950771 29.314577 26.439999 28.365L 26.315001 28.141249M 23.1425 12.78125C 23.616581 13.307542 24.291666 13.608022 25 13.608022C 25.708334 13.608022 26.383419 13.307542 26.8575 12.78125L 28.059999 11.45125C 28.768265 10.661479 29.89785 10.404702 30.877934 10.81068C 31.858015 11.216658 32.475159 12.19698 32.4175 13.25625L 32.326248 15.04625C 32.289936 15.752952 32.554817 16.441938 33.055187 16.94231C 33.555561 17.442684 34.244549 17.707563 34.951252 17.671249L 36.75 17.5825C 37.809269 17.524839 38.789593 18.141985 39.195572 19.122066C 39.601547 20.10215 39.344772 21.231735 38.555 21.940001L 37.225002 23.1425C 36.698708 23.616581 36.398232 24.291666 36.398232 25C 36.398232 25.708334 36.698708 26.383419 37.225002 26.8575L 38.555 28.059999C 39.344772 28.768265 39.601547 29.89785 39.195572 30.877934C 38.789593 31.858015 37.809269 32.475159 36.75 32.4175L 34.959999 32.326248C 34.2533 32.289936 33.564312 32.554817 33.063938 33.055187C 32.563568 33.555561 32.298687 34.244549 32.334999 34.951252L 32.42625 36.741249C 32.48391 37.800518 31.866764 38.780842 30.886684 39.186821C 29.906601 39.592796 28.777016 39.336021 28.06875 38.546249L 26.866249 37.216251C 26.39217 36.689957 25.717083 36.389481 25.008751 36.389481C 24.300417 36.389481 23.625332 36.689957 23.151249 37.216251L 21.94875 38.546249C 21.242926 39.341732 20.111101 39.603615 19.127602 39.199009C 18.144098 38.794399 17.524218 37.811878 17.5825 36.75L 17.67375 34.959999C 17.710064 34.2533 17.445183 33.564312 16.944811 33.063938C 16.444439 32.563568 15.755451 32.298687 15.04875 32.334999L 13.25875 32.42625C 12.199479 32.48391 11.219158 31.866764 10.81318 30.886684C 10.407203 29.906601 10.663979 28.777016 11.45375 28.06875L 12.78375 26.866249C 13.310041 26.39217 13.610521 25.717083 13.610521 25.008751C 13.610521 24.300417 13.310041 23.625332 12.78375 23.151249L 11.45125 21.940001C 10.661479 21.231735 10.404702 20.10215 10.81068 19.122066C 11.216658 18.141985 12.19698 17.524839 13.25625 17.5825L 15.04625 17.67375C 15.752952 17.710064 16.441938 17.445183 16.94231 16.944811C 17.442684 16.444439 17.707563 15.755451 17.671249 15.04875L 17.5825 13.25625C 17.524839 12.19698 18.141985 11.216658 19.122066 10.81068C 20.10215 10.404702 21.231735 10.661479 21.940001 11.45125Z"></path></g></g></g><g id="g-root-tx_leverage_1hdtt8b1adn098-stroke" data-item-order="2000000000" transform="translate(378.0000305175781, 185)"></g><g id="g-root-cu_1ut1cfv1admzuz-stroke" data-item-order="2000000002" transform="translate(432.6000061035156, 737)"><g id="cu_1ut1cfv1admzuz-stroke" fill="none" stroke-linecap="round" stroke-linejoin="round" stroke-miterlimit="4" stroke="#f4f4f4" stroke-width="2"><g><path d="M 10 10L 10 28L 10 44"></path><path d="M 3.5 38L 10 44.5L 16.5 38" stroke-dasharray="none"></path></g></g></g><g id="g-root-cu_1qd7ubf1adn0na-stroke" data-item-order="2000000002" transform="translate(432.6000061035156, 901)"><g id="cu_1qd7ubf1adn0na-stroke" fill="none" stroke-linecap="round" stroke-linejoin="round" stroke-miterlimit="4" stroke="#f4f4f4" stroke-width="2"><g><path d="M 10 10L 10 30L 10 48"></path><path d="M 3.5 42L 10 48.5L 16.5 42" stroke-dasharray="none"></path></g></g></g><g id="g-root-cu_4nkapn1admz9c-stroke" data-item-order="2000000002" transform="translate(432.6000061035156, 587)"><g id="cu_4nkapn1admz9c-stroke" fill="none" stroke-linecap="round" stroke-linejoin="round" stroke-miterlimit="4" stroke="#f4f4f4" stroke-width="2"><g><path d="M 10 10L 10 25L 10 38"></path><path d="M 3.5 32L 10 38.5L 16.5 32" stroke-dasharray="none"></path></g></g></g><g id="g-root-cu_diktvf1adn0uk-stroke" data-item-order="2000000002" transform="translate(432.6000061035156, 415)"><g id="cu_diktvf1adn0uk-stroke" fill="none" stroke-linecap="round" stroke-linejoin="round" stroke-miterlimit="4" stroke="#f4f4f4" stroke-width="2"><g><path d="M 10 10L 10 42L 10 72"></path><path d="M 3.5 66L 10 72.5L 16.5 66" stroke-dasharray="none"></path></g></g></g><g id="g-root-cu_hyebzv1adn025-stroke" data-item-order="2000000002" transform="translate(432.6000061035156, 269)"><g id="cu_hyebzv1adn025-stroke" fill="none" stroke-linecap="round" stroke-linejoin="round" stroke-miterlimit="4" stroke="#f4f4f4" stroke-width="2"><g><path d="M 10 10L 10 47L 10 82"></path><path d="M 3.5 76L 10 82.5L 16.5 76" stroke-dasharray="none"></path></g></g></g><g id="g-root-cu_me7u4b1admz9r-stroke" data-item-order="2000000002" transform="translate(432.6000061035156, 137)"><g id="cu_me7u4b1admz9r-stroke" fill="none" stroke-linecap="round" stroke-linejoin="round" stroke-miterlimit="4" stroke="#f4f4f4" stroke-width="2"><g><path d="M 10 10L 10 28L 10 44"></path><path d="M 3.5 38L 10 44.5L 16.5 38" stroke-dasharray="none"></path></g></g></g></g></g></svg>